<svg width="158" height="199" viewBox="0 0 158 199" fill="none" xmlns="http://www.w3.org/2000/svg">
<g id="cookie_1">
<path id="Vector 2" d="M40.1538 198C165.92 198 164.036 61.509 151.318 1.37264C60.1257 -3.82702 31.0472 46.6767 29.7911 72.5083L58.9953 96.0068L21.7835 109.506L47.6904 123.491L21.7835 135.004L40.1539 155.003L2 169.502L40.1538 198Z" fill="#FFC965" stroke="#FFC965"/>
<path id="Vector 4" d="M26.5 187.5C143.7 177.1 147 70.8333 134 19C87.2 6.2 45.1667 41.3333 30 60.5L26.5 73.5L58 96L19.5 109.5L46.5 123.5L19.5 135.5L38 154.5L0 169.5L26.5 187.5Z" fill="#E1CDA0"/>
</g>
</svg>
