<svg width="169" height="199" viewBox="0 0 169 199" fill="none" xmlns="http://www.w3.org/2000/svg">
<g id="cookie_2">
<path id="Vector 1" d="M147.097 197.886C-10.1032 197.086 -9.73652 66.2192 10.0968 0.885901C106.897 -4.3141 133.763 46.0526 135.097 71.8859L166.5 95.5L128.5 110L156 123.5L128.5 135.5L147.097 154.5L107 169.5L147.097 197.886Z" fill="#FFC965" stroke="#FFC965"/>
<path id="Vector 3" d="M132.836 186.45C13.6362 173.65 9.16949 68.4496 21.8362 17.4496C69.8362 0.649556 115.836 35.4496 132.836 54.9496L137.336 71.9496L167.836 94.9496L129.836 109.95L157.336 122.95L129.836 135.95L148.336 154.95L109.836 169.95L132.836 186.45Z" fill="#E1CDA0" stroke="#E1CDA0"/>
</g>
</svg>
